<svg id="Layer_1" data-name="Layer 1" xmlns="http://www.w3.org/2000/svg" xmlns:xlink="http://www.w3.org/1999/xlink" viewBox="0 0 1080 1080"><defs><style>.cls-1{fill:url(#linear-gradient);}.cls-2{font-size:237.84px;fill:#fff;font-family:EthnocentricRg-Regular, Ethnocentric;}</style><linearGradient id="linear-gradient" x1="571.61" y1="393.33" x2="634.13" y2="558.53" gradientUnits="userSpaceOnUse"><stop offset="0" stop-color="#662d91"/><stop offset="0.25" stop-color="#8dc63f"/></linearGradient></defs><path class="cls-1" d="M363,405.94l71.6,105.6,74.68-105.6h58L465.46,549.83a59.36,59.36,0,0,1-12.84,12.37q-7.62,5.47-19,5.47-11.18,0-18.67-5.11a48.43,48.43,0,0,1-12.72-12.73L302.54,405.94Z"/><path class="cls-1" d="M785.6,565.06H711.16l-48-41.86q-12.36-10.71-18.91-16.65t-10.58-10c.16,3.65.31,7.41.47,11.29s.24,7.73.24,11.54v45.67H584.86V405.94h49.47V442.8q0,7.38-.24,14.51t-.71,13.32q4.75-4.28,11.54-10.58t17.72-15.34l45.9-38.77h71.35L719,451.6q-7.85,6-13.91,10.47t-10.82,7.85q-4.75,3.33-8.68,5.94t-7.73,5q6.9,4.75,16.65,11.89t25.21,19.74Z"/><text class="cls-2" transform="translate(299.93 565.06)">VK</text></svg>